<svg xmlns="http://www.w3.org/2000/svg" viewBox="0 0 200 400" fill="none" stroke="currentColor" stroke-width="2" stroke-linecap="round" stroke-linejoin="round" opacity="0.15">
  <!-- Head -->
  <circle cx="100" cy="42" r="18" />
  <!-- Neck -->
  <line x1="100" y1="60" x2="100" y2="75" />
  <!-- Shoulders -->
  <line x1="60" y1="85" x2="140" y2="85" />
  <!-- Torso -->
  <line x1="60" y1="85" x2="70" y2="185" />
  <line x1="140" y1="85" x2="130" y2="185" />
  <line x1="70" y1="185" x2="130" y2="185" />
  <!-- Left arm (biceps pose - arm up, elbow bent) -->
  <line x1="60" y1="85" x2="35" y2="85" />
  <line x1="35" y1="85" x2="40" y2="45" />
  <!-- Right arm (biceps pose - arm up, elbow bent) -->
  <line x1="140" y1="85" x2="165" y2="85" />
  <line x1="165" y1="85" x2="160" y2="45" />
  <!-- Fists -->
  <circle cx="40" cy="42" r="5" />
  <circle cx="160" cy="42" r="5" />
  <!-- Left leg -->
  <line x1="80" y1="185" x2="75" y2="290" />
  <line x1="75" y1="290" x2="73" y2="375" />
  <!-- Right leg -->
  <line x1="120" y1="185" x2="125" y2="290" />
  <line x1="125" y1="290" x2="127" y2="375" />
  <!-- Feet -->
  <line x1="63" y1="375" x2="83" y2="375" />
  <line x1="117" y1="375" x2="137" y2="375" />
</svg>
