<svg xmlns="http://www.w3.org/2000/svg" viewBox="0 0 200 400" fill="none" stroke="currentColor" stroke-width="2" stroke-linecap="round" stroke-linejoin="round" opacity="0.15">
  <!-- Head -->
  <circle cx="105" cy="42" r="18" />
  <!-- Neck -->
  <line x1="105" y1="60" x2="102" y2="75" />
  <!-- Torso (side view - narrower) -->
  <line x1="95" y1="85" x2="115" y2="85" />
  <line x1="95" y1="85" x2="88" y2="185" />
  <line x1="115" y1="85" x2="108" y2="185" />
  <line x1="88" y1="185" x2="108" y2="185" />
  <!-- Side profile body curve -->
  <path d="M115,85 Q125,130 108,185" />
  <!-- Left arm (closer, on hip) -->
  <line x1="95" y1="85" x2="82" y2="120" />
  <line x1="82" y1="120" x2="88" y2="155" />
  <!-- Right arm (further, on hip) -->
  <line x1="115" y1="85" x2="120" y2="115" />
  <line x1="120" y1="115" x2="108" y2="145" />
  <!-- Left leg (front) -->
  <line x1="92" y1="185" x2="88" y2="290" />
  <line x1="88" y1="290" x2="86" y2="375" />
  <!-- Right leg (back) -->
  <line x1="105" y1="185" x2="108" y2="290" />
  <line x1="108" y1="290" x2="110" y2="375" />
  <!-- Feet -->
  <line x1="76" y1="375" x2="96" y2="375" />
  <line x1="100" y1="375" x2="120" y2="375" />
</svg>
